<?xml version="1.0" standalone="no"?>
<!DOCTYPE svg PUBLIC "-//W3C//DTD SVG 20010904//EN"
 "http://www.w3.org/TR/2001/REC-SVG-20010904/DTD/svg10.dtd">
<svg version="1.0" xmlns="http://www.w3.org/2000/svg"
 width="1200.000000pt" height="1200.000000pt" viewBox="0 0 1200.000000 1200.000000"
 preserveAspectRatio="xMidYMid meet">

<g transform="translate(0.000000,1200.000000) scale(0.100000,-0.100000)"
fill="#000000" stroke="none">
<path d="M5933 10950 c-180 -32 -329 -155 -393 -326 -86 -231 23 -505 247
-616 88 -44 155 -55 383 -62 1125 -34 2215 -585 2933 -1481 606 -757 911
-1693 866 -2661 -13 -271 -43 -485 -105 -744 -344 -1433 -1473 -2569 -2904
-2919 -379 -93 -731 -127 -1128 -110 -1264 55 -2426 715 -3126 1778 -351 533
-552 1082 -633 1731 -27 223 -25 707 5 930 75 553 239 1039 508 1506 102 177
299 459 313 449 5 -2 61 -81 126 -174 64 -94 137 -188 160 -210 103 -95 258
-92 365 7 49 45 67 82 496 992 557 1179 516 1089 516 1166 -1 160 -121 278
-281 275 -36 0 -548 -41 -1137 -90 -965 -80 -1076 -91 -1122 -111 -58 -25
-123 -89 -148 -147 -24 -55 -23 -157 3 -213 11 -25 107 -171 214 -325 107
-154 198 -286 203 -293 5 -8 -20 -45 -72 -105 -577 -673 -978 -1545 -1117
-2433 -78 -498 -79 -1051 -4 -1529 198 -1251 837 -2349 1823 -3135 744 -593
1622 -950 2596 -1057 227 -24 766 -24 990 0 1362 151 2543 798 3390 1857 1102
1377 1383 3260 733 4910 -332 843 -906 1596 -1633 2144 -660 498 -1423 820
-2235 945 -271 42 -726 69 -832 51z"/>
</g>
</svg>
